<svg width="33" height="32" viewBox="0 0 33 32" fill="none" xmlns="http://www.w3.org/2000/svg">
<g clip-path="url(#clip0_1_1504)">
<g clip-path="url(#clip1_1_1504)">
<path d="M20.4888 10.1804C20.8605 10.1804 21.2237 10.2165 21.5763 10.2835V1.07935H19.4014V10.2829C19.754 10.2165 20.1172 10.1798 20.4888 10.1798V10.1804Z" fill="#DE9E67"/>
<path d="M17.2329 11.1728L8.35776 2.06519L6.54004 3.8829L15.6477 12.7574C16.0686 12.1322 16.6078 11.5938 17.2323 11.1728H17.2329Z" fill="#DE9E67"/>
<path d="M15.6277 12.7902L2.86491 7.21558L1.80566 9.77338L14.7714 14.8555C14.9224 14.1049 15.2186 13.4068 15.6277 12.7902Z" fill="#DE9E67"/>
<path d="M26.1566 14.6375L31.2873 12.3962L30.6819 10.9351L25.4697 12.978C25.7797 13.485 26.0128 14.0438 26.1566 14.6375Z" fill="#DE9E67"/>
<path d="M23.6448 11.1091L26.4987 4.08976L24.6718 3.33325L21.7266 10.3139C22.42 10.4636 23.0675 10.7374 23.6448 11.1098V11.1091Z" fill="#DE9E67"/>
<path d="M25.2426 12.6344L29.674 8.08683L28.4157 6.82861L23.8682 11.26C24.3994 11.6382 24.8644 12.1031 25.2426 12.6344Z" fill="#DE9E67"/>
<path d="M19.327 10.2967L15.1774 0.0891113L12.9854 0.997314L17.2696 11.1504C17.8843 10.7426 18.5797 10.4477 19.3277 10.2967H19.327Z" fill="#DE9E67"/>
<path d="M20.4888 21.8465C20.1172 21.8465 19.754 21.8104 19.4014 21.7434V30.9706H21.5763V21.7434C21.2237 21.8097 20.8605 21.8465 20.4888 21.8465Z" fill="#DE9E67"/>
<path d="M21.7256 21.7139L24.6787 28.7122L26.5056 27.9557L23.6444 20.918C23.0665 21.2903 22.4197 21.5642 21.7256 21.7139Z" fill="#DE9E67"/>
<path d="M23.8682 20.767L28.4256 25.2075L29.6838 23.9493L25.2433 19.3918C24.865 19.9231 24.4001 20.388 23.8682 20.767Z" fill="#DE9E67"/>
<path d="M14.7711 17.1724L1.79492 22.2591L2.85416 24.8169L15.6274 19.2377C15.2183 18.6217 14.9222 17.9236 14.7711 17.173V17.1724Z" fill="#DE9E67"/>
<path d="M17.269 20.8772L12.9756 31.0533L15.1676 31.9615L19.3264 21.7316C18.5785 21.5805 17.883 21.2857 17.269 20.8779V20.8772Z" fill="#DE9E67"/>
<path d="M15.6484 19.2698L6.52637 28.1587L8.34409 29.9765L17.233 20.8544C16.6085 20.4334 16.0694 19.8943 15.6484 19.2698Z" fill="#DE9E67"/>
<path d="M31.5997 16.71L0.400391 17.4888L0.401704 14.5232L31.6004 15.3257L31.5997 16.71Z" fill="#DE9E67"/>
</g>
</g>
<defs>
<clipPath id="clip0_1_1504">
<rect width="32" height="32" fill="white" transform="translate(0.400391)"/>
</clipPath>
<clipPath id="clip1_1_1504">
<rect width="31.2" height="31.8718" fill="white" transform="translate(0.400391 0.0891113)"/>
</clipPath>
</defs>
</svg>
